<?xml version="1.0" encoding="UTF-8"?> <!-- Generator: Adobe Illustrator 22.0.0, SVG Export Plug-In . SVG Version: 6.00 Build 0) --> <svg xmlns="http://www.w3.org/2000/svg" xmlns:xlink="http://www.w3.org/1999/xlink" version="1.1" id="Layer_1" x="0px" y="0px" viewBox="0 0 100.9 179.2" style="enable-background:new 0 0 100.9 179.2;" xml:space="preserve"> <style type="text/css"> .st0{fill:#FFE800;} .st1{fill:#231F20;} .st2{fill:#FEE600;} .st3{fill:#ED3326;} .st4{fill:#FFFFFF;} .st5{fill:#184784;} .st6{fill:url(#XMLID_55_);} .st7{opacity:0.72;fill:url(#XMLID_56_);enable-background:new ;} .st8{opacity:0.41;fill:url(#XMLID_57_);enable-background:new ;} </style> <path class="st0" d="M77.5,179H24.8c-2.8,0-5.1-2.3-5.1-5.1V0H81v175.5C81.1,177.4,79.5,179,77.5,179z"></path> <g id="XMLID_1_"> <g id="XMLID_2_"> <g id="XMLID_3_"> <g id="XMLID_12_"> <path class="st0" d="M50.6,145.3c-0.9,0-1.9-0.3-2.6-0.9l-0.7-0.5c-4.6-3.8-12.3-6.5-15.4-7.5c-1.6-0.4-1.9-0.5-2.2-0.7h-0.1 c-16.6-5.8-23.8-14.9-26-18.6L3.5,117c-2.3-4.2-3.4-8.7-3.4-13.4c0-4.9,1.2-10,3.5-14.5C7,82.6,7.2,78.3,7.2,77.5v-0.4 c-0.1-0.6-0.4-1.9-1-3.5c-0.9-2.3-2-4.2-3.1-5.6l0,0c-0.2-0.2-0.3-0.3-0.4-0.5L1,64.9c-0.9-1.6-0.8-3.5,0.3-4.9l13.4-16 c0.7-0.9,1.9-1.4,3.1-1.4c0.1,0,0.2,0,0.3,0c1.3,0,2.6,0.8,3.3,1.9l0.8,1.1c1,1.7,2.8,2.6,4.7,2.6c2.1,0,4.1-1.3,5-3.2l0.8-1.8 c0.6-1.4,1.9-2.3,3.4-2.5h0.1h0.1c1.5,0,2.9,0.7,3.6,2l1.1,1.7c0.8,1.4,4.1,3.3,8.7,3.3c3.7,0,7.2-2,8.6-3.8l1-1.3 c0.7-1,1.9-1.6,3.2-1.6c0.1,0,0.3,0,0.4,0c1.4,0.2,2.6,1,3.2,2.1l0.8,1.3c1,1.8,3,3.7,4.8,3.7c4,0,4.7-1.5,5-2.1l0.7-1.5 c0.6-1.3,1.8-2.1,3.1-2.3c0.2,0,0.5-0.1,0.7-0.1c1.1,0,2.2,0.5,3,1.3l15.1,16.4c1.4,1.5,1.4,3.8,0.2,5.4l-1.7,2.1 c-3.4,4.4-4.1,8.4-4.1,9.1v0.8c0,0.2,0,4.7,3.6,11.5c0.6,1.1,3.6,7,3.6,14.5c0,4.7-1.1,9.2-3.3,13.3c-0.7,1.2-7,12.3-25.9,19 h-0.1c-0.1,0.1-0.4,0.1-0.6,0.2c-0.1,0-0.6,0.1-1.4,0.4l-0.5,0.2c-1.1,0.3-2.5,0.8-4.1,1.5c-3.2,1.3-7.7,3.3-10.8,5.9l-0.6,0.5 C52.5,145,51.6,145.3,50.6,145.3z"></path> <path id="XMLID_54_" class="st1" d="M95.6,89.6c-3.6-6.8-3.8-11.5-3.8-12.4c0-0.1,0-0.2,0-0.2l0,0l0,0c0-0.2,0-0.4,0-0.5 c0-1,0.8-5.3,4.5-10.2l1.7-2c0.7-0.9,0.7-2.2-0.1-3.1l-15-16.4c-0.5-0.5-1.3-0.9-2.1-0.7c-0.8,0.1-1.4,0.6-1.8,1.3l-0.6,1.4 c-0.4,0.8-1.4,3.1-6.6,3.1c-2.6,0-5.1-2.3-6.3-4.5l-0.8-1.3c-0.4-0.7-1.1-1.2-1.9-1.2c-0.8-0.1-1.6,0.3-2,0.9l-1,1.2 c-1.7,2.2-5.7,4.5-10,4.5h-0.1c-5.1,0-9-2-10.2-4.1l-1.1-1.7c-0.4-0.7-1.2-1.2-2.1-1.2c-0.9,0.1-1.6,0.6-2,1.4l-0.8,1.8 c-1.2,2.6-3.7,4.3-6.6,4.3c-2.5,0-4.8-1.2-6.1-3.4L20,45.4c-0.4-0.6-1.1-1.1-1.9-1.1c-0.7-0.1-1.5,0.3-2,0.8l-13.5,16 c-0.6,0.8-0.7,2-0.2,2.8L4,66.5c0.1,0.1,0.1,0.2,0.2,0.3l0.1,0.1c1.2,1.4,2.5,3.6,3.5,6.1c0.7,1.9,1.1,3.5,1.2,4 c0,0.1,0,0.2,0,0.3v0.1c0,0,0,0.1,0,0.2c0,0.9-0.2,5.6-3.7,12.4C4.8,91.1,2,96.5,2,103.7c0,4.5,1.1,8.6,3.2,12.6l0,0 c0.9,1.4,7.1,11.7,25.3,17.9c0.1,0,0.1,0,0.2,0.1l0,0c0.2,0.1,0.8,0.3,1.9,0.5c2.5,0.8,10.9,3.6,16,7.8l0.7,0.5 c0.4,0.4,1,0.5,1.5,0.5s1.1-0.2,1.5-0.5l0.6-0.5c3.3-2.8,7.9-4.9,11.3-6.2c2-0.8,3.6-1.3,4.7-1.7c1-0.4,1.7-0.5,1.9-0.5 c0.1,0,0.2-0.1,0.3-0.1c18.2-6.4,24.2-16.8,24.9-18.2l0,0c2-3.8,3.1-8,3.1-12.5C98.9,96.1,96.1,90.6,95.6,89.6z M91.7,76.4 L91.7,76.4L91.7,76.4"></path> <g id="XMLID_13_"> <path id="XMLID_52_" class="st2" d="M8.9,91.6c0,0-0.4,0.8-1,2.2L93,93.5c-0.5-1.4-1.1-2.2-1.1-2.2c-2.5-4.8-3.5-8.6-3.9-11.1 l-75.3,0.2C12.3,82.9,11.4,86.8,8.9,91.6z"></path> <path id="XMLID_51_" class="st3" d="M70.1,94.5l0.1,35.4c4.6-1.8,8.5-3.7,11.4-5.7l-0.1-29.7H70.1z"></path> <path id="XMLID_50_" class="st2" d="M83.5,78.8l-0.1-28l-2.4-3c-1.1,2.2-2.8,4-5.1,5.1l0.1,26L83.5,78.8z"></path> <polygon id="XMLID_49_" class="st2" points="94.1,63.2 89.9,58.2 89.9,70.6 "></polygon> <path id="XMLID_48_" class="st2" d="M55.6,78.8l-0.1-26.3c-1.8,0.5-3.6,0.8-5.7,0.8c-0.6,0-1.2,0-1.8-0.1l0.1,25.5L55.6,78.8 L55.6,78.8z"></path> <path id="XMLID_47_" class="st3" d="M18.6,94.7l0.1,29.3c3,2,6.9,4.2,11.8,6.1l-0.1-35.3H18.6V94.7z"></path> <path id="XMLID_46_" class="st4" d="M23.3,70.2H10.4l0,0c2.4,3.6,2.4,5.5,2.5,7.1c0,0,0,0.5,0,1.5h10.5L23.3,70.2z"></path> <path id="XMLID_45_" class="st4" d="M41.6,63.8V51.7c-2.1-1-3.8-2.4-4.8-4c-1.3,2.9-3.9,5.2-7.1,6v10.1 C29.7,63.8,41.6,63.8,41.6,63.8z"></path> <rect id="XMLID_44_" x="29.7" y="70.2" transform="matrix(1 -3.355904e-03 3.355904e-03 1 -0.25 0.1201)" class="st4" width="11.9" height="8.7"></rect> <path id="XMLID_43_" class="st4" d="M23.3,53.1c-2-0.8-3.7-2.3-4.9-4.1l-12,14.2l0.4,0.6h16.6V53.1H23.3z"></path> <path id="XMLID_42_" class="st3" d="M42.8,94.6l0.1,40.1c2.7,1.3,5.4,2.9,7.7,4.7c2.1-1.8,4.7-3.4,7.3-4.6l-0.1-40.1L42.8,94.6 L42.8,94.6z"></path> <path id="XMLID_41_" class="st2" d="M69.6,78.8l-0.1-25.2c-3.1-0.5-5.8-2.5-7.2-5.3c-0.1,0.2-0.2,0.3-0.4,0.4l0.1,30L69.6,78.8 L69.6,78.8z"></path> <path id="XMLID_40_" class="st3" d="M29.7,63.8V53.7c-0.8,0.2-1.6,0.3-2.4,0.3c-1.4,0-2.8-0.3-4-0.8v10.7H6.7l3.7,6.4h12.9V79 h6.4v-8.7h11.9v-6.4H29.7V63.8z"></path> <path id="XMLID_39_" class="st3" d="M41.5,51.7v12.1v6.4v8.7h6.4l-0.1-25.5C45.6,53.1,43.4,52.6,41.5,51.7z"></path> <path id="XMLID_38_" class="st3" d="M62,78.8l-0.1-30c-1.4,1.7-3.6,2.9-6.4,3.7l0.1,26.3H62z"></path> <path id="XMLID_37_" class="st3" d="M76,78.8l-0.1-26c-1.3,0.6-2.8,1-4.5,1c-0.6,0-1.3-0.1-2-0.2l0.1,25.2H76z"></path> <path id="XMLID_36_" class="st3" d="M87.8,78.8c-0.1-1-0.1-1.5-0.1-1.5c-0.2-1-0.2-2-0.1-2.8l2.1-3.7V58.3l-6.4-7.5l0.1,28 H87.8z"></path> <path id="XMLID_35_" class="st5" d="M7.3,94.7c-1.4,4.3-2.7,11.7,1.4,19.2c0,0,2.5,4.9,9.9,10l-0.1-29.3L7.3,94.7z"></path> <path id="XMLID_34_" class="st5" d="M92.2,113.6c4-7.6,2.7-15,1.2-19.2H81.5l0.1,29.7C89.6,118.9,92.2,113.6,92.2,113.6z"></path> <path id="XMLID_33_" class="st5" d="M30.4,94.6l0.1,35.3c0.4,0.1,0.8,0.3,1.2,0.4c0,0,5.5,1.5,11.3,4.3l-0.1-40.1H30.4V94.6z"></path> <path id="XMLID_32_" class="st5" d="M57.7,94.5l0.1,40.1c5.8-2.9,11.5-4.5,11.5-4.5c0.3-0.1,0.6-0.2,0.9-0.4l-0.1-35.4 L57.7,94.5z"></path> <path id="XMLID_31_" class="st1" d="M29.7,87.1h0.4c1.1,0,2.5,0.3,2.5,2.2c0,0.9-0.2,2-2,2.1c-0.7,0-1-0.3-1-0.9v-3.4H29.7z M29.7,83.6c0-0.4,0-0.7,0.9-0.7c1.3,0,1.7,0.8,1.7,1.8c0,1.4-0.4,2-2.5,2L29.7,83.6z M25.8,91.8H31c3.4-0.1,4.5-1.4,4.5-2.6 c0-1.6-1.7-2.2-3-2.5l0,0c0.7-0.2,2.5-0.5,2.5-2.1c0-2.1-3.3-2.2-4.2-2.2h-5v0.4c0.7,0,1.4,0.1,1.4,1v6.8c0,0.9-0.5,0.9-1.4,1 C25.8,91.5,25.8,91.8,25.8,91.8z"></path> <path id="XMLID_30_" class="st1" d="M38.1,89.6c0.7,0,1.3,0.5,1.3,1.2S38.8,92,38.1,92c-0.8,0-1.3-0.5-1.3-1.2 C36.8,90.2,37.4,89.6,38.1,89.6z"></path> <path id="XMLID_29_" class="st1" d="M51.5,85.2c-0.3-1-1.2-2.6-3.1-2.6c-0.8,0-1.7,0.4-1.7,1.3c0,0.7,0.3,1.1,1.7,1.6l2.4,1 c0.5,0.3,1.8,1.1,1.8,2.6c0,1.2-1.1,2.9-4,2.9c-1.5,0-2.2-0.4-2.8-0.4c-0.4,0-0.4,0.3-0.4,0.4H45v-3.5h0.4 c0.4,1.4,1.2,2.9,3.3,2.9c2,0,2-1.4,2-1.6c0-0.9-0.7-1.2-1.8-1.7l-1.1-0.4C45,86.6,45,85.4,45,84.8c0-0.8,0.4-2.8,3.6-2.8 c1.2,0,2,0.4,2.5,0.4c0.4,0,0.4-0.2,0.5-0.4H52v3L51.5,85.2L51.5,85.2z"></path> <path id="XMLID_28_" class="st1" d="M55.1,89.6c0.7,0,1.3,0.5,1.3,1.2S55.8,92,55.1,92c-0.8,0-1.3-0.5-1.3-1.2 S54.3,89.6,55.1,89.6z"></path> <path id="XMLID_27_" class="st1" d="M72.1,90c-1.2,1.2-2.4,2-4.5,2c-3.7,0-5.8-2.2-5.8-4.9c0-2.8,2.3-5,5.7-5 c1.4,0,2.7,0.6,3.1,0.6s0.6-0.3,0.7-0.6h0.4v3.3h-0.4c-0.5-1.2-2-2.8-3.7-2.8c-2.3,0-2.9,2.1-2.9,4.5c0,0.8,0.1,2.1,0.7,3 c0.7,1,2,1.2,2.5,1.2c1.2,0,2.5-0.4,3.7-1.7L72.1,90z"></path> <path id="XMLID_26_" class="st1" d="M74.7,89.5c0.7,0,1.3,0.5,1.3,1.2s-0.6,1.2-1.3,1.2c-0.8,0-1.3-0.5-1.3-1.2 C73.4,90.1,73.9,89.5,74.7,89.5z"></path> <g id="XMLID_23_"> <linearGradient id="XMLID_55_" gradientUnits="userSpaceOnUse" x1="50.1549" y1="-1189.3" x2="50.1549" y2="-1092.9886" gradientTransform="matrix(1 0 0 -1 0 -1048)"> <stop offset="0" style="stop-color:#FED713"></stop> <stop offset="0.563" style="stop-color:#FFE30B"></stop> <stop offset="0.5651" style="stop-color:#FCEE2B"></stop> </linearGradient> <path id="XMLID_25_" class="st6" d="M93.3,90.9c-3.8-7.2-4.1-12.2-4.1-13.4c0-0.2,0-0.3,0-0.3v-0.1V77c0,0,0-0.1,0-0.2 c0-1.3,0.8-6.3,5.1-11.8l1.7-2L81,46.4l-0.6,1.4c-1.5,3.1-4.6,4.5-8.6,4.5c-3.5,0-6.8-2.8-8.5-5.8l-0.9-1.4l-0.9,1.2 c-2,2.8-6.7,5.5-11.8,5.5c-5.7,0-10.6-2.3-12.3-5.3l-1.1-1.7l-0.8,1.8c-1.5,3.4-4.8,5.7-8.7,5.7c-3.5,0-6.4-1.8-8.2-4.5 l-0.7-1.2L4.2,62.8l1.6,2.5l0.1,0.1c1.7,1.9,3,4.5,3.9,6.9c0.9,2.3,1.3,4.5,1.3,4.9l0,0v0.1v0.1c0,0,0,0.1,0,0.3 c0,1.2-0.3,6.3-4,13.4c0,0.1-3,5.3-3,12.6c0,3.5,0.7,7.4,2.9,11.4c0.1,0.2,5.4,10.6,23.9,16.9l0,0l0,0c0,0,0.7,0.2,2,0.5 c3.6,1.2,11.7,4.1,16.8,8.3l0.6,0.5l0.6-0.5c3.4-2.8,8.1-5.1,11.9-6.6c1.9-0.8,3.6-1.3,4.8-1.8c1.2-0.4,2-0.6,2-0.6l0,0l0,0 c18.3-6.4,23.7-16.9,23.8-17.1c2.1-3.9,2.8-7.8,2.8-11.4C96.4,96.5,93.5,91.3,93.3,90.9z M8.2,64.5l-0.7-1.1l10.7-12.6 c2.1,2.6,5.3,4.3,9,4.3c4.1,0,7.7-2.1,9.7-5.3c2.7,3,7.5,4.8,12.8,4.8c5.2,0,9.6-2.4,12.3-5.2c2,2.9,5.3,5.5,9.3,5.5 c3.9,0,7.6-1.2,9.6-4.4l11.7,12.7L92.1,64c-4.5,5.9-5.4,11-5.4,12.9c0,0.2,0,0.3,0,0.4s0,0.2,0,0.3c0,0.3,0,0.7,0.1,1.2h-3.3 h-7.6h-6.4h-7.6h-6.4h-7.6h-6.4H29.6h-6.4h-9.4c0-0.5,0.1-0.9,0.1-1.2c0-0.2,0-0.3,0-0.4s0-0.1,0-0.2c0-1-0.5-3-1.4-5.5 C11.5,69.4,10.2,66.6,8.2,64.5z M91,112.9L91,112.9c-0.6,1.1-5.9,10.1-22.3,15.8c-0.9,0.3-11.5,3.2-18.5,8.6 c-7-5.4-17.7-8.4-18.5-8.5c-8.8-3-14.3-7-17.8-10.2c-1.7-1.6-2.8-3-3.6-4c-0.4-0.5-0.6-0.9-0.8-1.2c-0.1-0.1-0.1-0.3-0.2-0.3 c0-0.1,0-0.1,0-0.1c-2-3.6-2.6-7.1-2.7-10.2c0-3.3,0.7-6.1,1.3-8.2l0,0H18h12h12.4h15h12.4h11.5H92c0.7,2,1.4,5,1.4,8.2 C93.6,105.8,93,109.4,91,112.9z"></path> <path id="XMLID_24_" class="st1" d="M50.3,141.9c-0.1,0-0.3-0.1-0.4-0.1l-0.6-0.5c-5.3-4.5-14.1-7.4-16.6-8.1 c-1.1-0.4-1.8-0.5-1.9-0.5l0,0l0,0h-0.1c-19-6.7-24.2-17.3-24.2-17.4c-2-3.6-2.9-7.5-2.9-11.6c0-6.8,2.6-11.8,3.1-12.8 c3.6-7,3.9-11.9,3.9-13.3c0-0.2,0-0.3,0-0.3v-0.1c0-0.1,0-0.1,0-0.1V77c0-0.4-0.4-2.3-1.2-4.6c-0.6-1.6-1.9-4.6-3.8-6.7 l-0.2-0.1c0,0,0,0-0.1-0.1L3.6,63c-0.1-0.2-0.1-0.4,0-0.6l13.8-16.1c0.1-0.1,0.3-0.2,0.4-0.2c0.2,0,0.4,0.1,0.4,0.3l0.8,1.2 c1.7,2.7,4.5,4.3,7.7,4.3c3.6,0,6.8-2.1,8.2-5.3l0.8-1.8c0.1-0.2,0.3-0.3,0.4-0.4c0.2,0,0.4,0.1,0.5,0.3l1.1,1.7 c1.8,2.9,6.6,5,11.7,5l0.1,0.5v-0.5c5,0,9.4-2.8,11.4-5.3l1-1.2c0.1-0.2,0.3-0.2,0.4-0.2c0.2,0,0.4,0.1,0.4,0.3l0.8,1.3 c1.5,2.8,4.5,5.5,7.9,5.5c4.2,0,6.9-1.4,8.3-4.2l0.6-1.4c0.1-0.2,0.3-0.3,0.4-0.3c0.2,0,0.4,0,0.4,0.2l15,16.4 c0.2,0.2,0.2,0.5,0,0.7l-1.7,2c-4.1,5.3-5,10.1-5,11.5c0,0.1,0,0.1,0,0.1v0.1V77v0.1l0,0c0,0,0,0.1,0,0.3 c0,1.3,0.3,6.2,4,13.3c0.5,1,3.1,6.1,3.2,12.8c0,4.2-1,8-2.9,11.7c0,0.1-5.3,10.8-24,17.4h-0.1l0,0l0,0 c-0.2,0-0.8,0.3-1.9,0.5c-1.1,0.4-2.8,1-4.8,1.7c-3.5,1.3-8.3,3.6-11.7,6.5l-0.6,0.5C50.6,141.9,50.5,141.9,50.3,141.9z M31.1,131.4c0.2,0,0.9,0.3,2,0.5c3.3,1.1,11.7,3.9,17,8.4l0.4,0.3l0.4-0.3c3.6-3,8.5-5.3,12.1-6.7c2-0.8,3.7-1.4,4.9-1.8 c1.1-0.4,1.8-0.5,2-0.6l0,0c0,0,0,0,0.1,0c18.3-6.4,23.4-16.7,23.5-16.8c1.9-3.5,2.8-7.2,2.8-11.1c0-6.5-2.5-11.4-3-12.3 C89.2,83.8,89,78.7,89,77.3c0-0.2,0-0.3,0-0.3l0,0l0,0v-0.1l0,0c0-0.1,0-0.2,0-0.3c0-1.5,0.9-6.6,5.2-12.2l1.2-1.6L81,47.3 L80.7,48c-1.4,3.1-4.6,4.8-9.2,4.8l0,0c-3.8,0-7.2-3-8.9-6.1L62.3,46l-0.4,0.6c-2.1,2.8-6.9,5.7-12.2,5.7h-0.1 c-5.6,0-10.7-2.2-12.7-5.5L36.5,46l-0.4,1c-1.6,3.6-5.3,6-9.3,6c-3.5,0-6.8-1.8-8.6-4.7l-0.4-0.5l-12.9,15L6.3,65 c2,2.2,3.4,5.3,4,7c0.8,2.1,1.3,4.4,1.3,5v0.1v0.1v0.1l0,0c0,0,0,0.1,0,0.4c0,1.4-0.3,6.5-4,13.7c-0.4,0.6-3,5.6-2.9,12.3 c0,3.9,1,7.7,2.8,11.1C7.5,114.9,13,125.2,31.1,131.4C31,131.4,31,131.4,31.1,131.4L31.1,131.4z M50.3,138 c-0.1,0-0.3,0-0.4-0.1c-6.3-4.9-15.6-7.7-18.3-8.5h-0.1c-7.3-2.5-13.4-6-18-10.3c-1.8-1.7-2.9-3.1-3.6-4.1 c-0.4-0.5-0.6-1-0.8-1.2c0-0.2,0-0.3-0.1-0.4v-0.1l0,0c-1.8-3.3-2.7-6.9-2.7-10.6c0-3.5,0.8-6.5,1.4-8.4 C7.8,94,8,93.9,8.2,93.9l83.9-0.3c0.3,0,0.4,0.2,0.5,0.4c0.6,2,1.4,5,1.4,8.4c0,3.7-0.9,7.3-2.6,10.5l-0.1,0.1 c-0.5,1.1-6,10.2-22.5,16h-0.1c-2.7,0.8-11.9,3.6-18.2,8.5C50.5,137.9,50.4,138,50.3,138z M9.9,112.9L9.9,112.9L9.9,112.9 c0.1,0.2,0.1,0.3,0.2,0.4c0.2,0.3,0.4,0.6,0.7,1.2c0.6,0.9,1.8,2.3,3.5,3.9c3.1,2.8,8.6,6.9,17.5,10.1 c2.8,0.8,11.9,3.6,18.3,8.4c6.4-4.9,15.6-7.7,18.3-8.5c16.1-5.7,21.4-14.5,21.9-15.5v-0.1c1.7-3.1,2.5-6.5,2.5-10.1 c0-3.1-0.7-5.8-1.2-7.7l-83,0.2c-0.6,1.9-1.2,4.5-1.2,7.7C7.3,106.4,8.2,109.8,9.9,112.9L9.9,112.9z M86.7,79.5l-72.9,0.2 c-0.2,0-0.3-0.1-0.4-0.2c-0.1-0.1-0.2-0.3-0.2-0.4c0-0.5,0.1-0.9,0.1-1.2c0-0.2,0-0.3,0-0.4s0-0.2,0-0.2 c0-0.8-0.4-2.7-1.4-5.3c-1.2-3-2.5-5.4-4.1-7.2c0,0,0-0.1-0.1-0.1L7,63.6c0-0.2,0-0.4,0.1-0.6l10.7-12.6 c0.1-0.1,0.3-0.2,0.4-0.2c0.2,0,0.4,0.1,0.4,0.2c2.1,2.6,5.3,4.1,8.5,4.1c3.7,0,7.2-1.9,9.3-5.1c0.1-0.2,0.3-0.3,0.4-0.3 c0.2,0,0.4,0.1,0.4,0.2c2.6,2.9,7.3,4.6,12.5,4.6c4.5,0,8.9-1.9,11.9-5c0.1-0.1,0.3-0.2,0.4-0.2c0.2,0,0.4,0.1,0.4,0.3 c1.1,1.6,4.2,5.3,8.9,5.3h0.1c4.1,0,7.3-1.4,9.1-4.1c0.1-0.2,0.3-0.3,0.4-0.3s0.4,0.1,0.4,0.2L93,62.8c0.2,0.2,0.2,0.5,0,0.7 l-0.5,0.7c-4.2,5.5-5.3,10.5-5.3,12.6c0,0.1,0,0.3,0,0.4v0.1c0,0.1,0,0.2,0,0.3c0,0.3,0,0.6,0.1,1.2c0,0.2,0,0.3-0.2,0.4 C87.1,79.4,86.9,79.5,86.7,79.5z M14.4,78.6l71.7-0.2c0-0.3,0-0.5,0-0.6s0-0.2,0-0.3c0-0.2,0-0.3,0-0.4 c0-2.2,1.2-7.6,5.6-13.3l0.3-0.4L81.1,51.5c-2,2.6-5.4,4-9.6,4h-0.1c-3.6,0-6.9-2-9.4-5.3c-3.2,3-7.7,4.8-12.2,4.8 c-5.2,0-9.9-1.7-12.8-4.5c-2.2,3.1-5.9,5-9.8,5c-3.5,0-6.7-1.4-9-4l-10,11.9l0.4,0.7c1.7,1.9,3.1,4.5,4.3,7.5 c0.9,2.4,1.4,4.5,1.4,5.7c0,0.1,0,0.2,0,0.3c0,0,0,0.2,0,0.3C14.5,78.1,14.4,78.3,14.4,78.6z"></path> </g> <path id="XMLID_22_" class="st4" d="M51,129.4c8.2,0,14.8-6.7,14.8-14.9s-6.7-14.8-14.9-14.8s-14.8,6.7-14.8,14.9 C36.2,122.9,42.8,129.5,51,129.4z"></path> <path id="XMLID_21_" class="st1" d="M35.7,114.7c0-8.4,6.8-15.2,15.1-15.2l0,0c8.4,0,15.2,6.8,15.2,15.1l0,0 c0,8.4-6.8,15.2-15.1,15.2l0,0v-0.4V129c7.9,0,14.3-6.5,14.3-14.4l0,0c0-7.9-6.5-14.3-14.4-14.3l0,0c-7.9,0-14.3,6.5-14.3,14.4 l0,0c0,7.9,6.5,14.3,14.4,14.3l0,0v0.4v0.4C42.6,129.8,35.7,123.1,35.7,114.7L35.7,114.7z"></path> <path id="XMLID_20_" class="st1" d="M46.8,109.2c0,0-1.1-0.2-2.2-0.9l0,0c-1.2-0.7-2.3-2-2.3-4.1l0,0c0-0.7,0.1-1.4,0.4-2.2 l0,0l0.8,0.3c-0.3,0.7-0.4,1.4-0.4,2l0,0c0,1.8,0.9,2.8,1.9,3.4l0,0c0.6,0.4,1.3,0.6,1.7,0.7l0,0c1.8-2.8,5.3-3.6,8.6-3.6l0,0 c4,0,7.7,1.1,7.7,1.1l0,0l0,0l-0.3,0.8c0,0-0.9-0.3-2.3-0.5l0,0c-1.4-0.3-3.3-0.5-5.3-0.5l0,0c-3.3,0-6.7,0.8-8.1,3.4l0,0 L46.8,109.2L46.8,109.2L46.8,109.2z"></path> <path id="XMLID_19_" class="st1" d="M57.9,127.4c2.6-3.2,3.3-6,3.3-8.2l0,0c0-2.8-1.2-4.7-1.9-5.5l0,0 c-0.2-0.3-0.4-0.4-0.4-0.4l0,0l-0.2-0.2l0.1-0.3c0.9-2.4,2.8-3,4.4-3l0,0c1.2,0,2,0.4,2,0.4l0,0l0,0L65,111 c0,0-0.2-0.1-0.5-0.2l0,0c-0.4-0.1-0.8-0.2-1.2-0.2l0,0c-1.2,0-2.7,0.4-3.5,2.2l0,0c0.5,0.6,2.2,2.8,2.2,6.2l0,0 c0,2.4-0.8,5.3-3.5,8.7l0,0L57.9,127.4L57.9,127.4z"></path> <path id="XMLID_18_" class="st1" d="M47.3,113.2c-0.8-1.3-0.9-2.8-0.9-3.6l0,0c0-0.5,0-0.8,0-0.8l0,0l0.8,0.1c0,0,0,0.3,0,0.7 l0,0c0,0.8,0.2,2.1,0.8,3.3l0,0c0.6,1.1,1.8,2,4,2l0,0c0.4-0.7,2-2.8,4.7-2.8l0,0c0.9,0,1.8,0.3,2.8,0.8l0,0l-0.4,0.7 c-0.9-0.5-1.7-0.7-2.4-0.7l0,0c-1.2,0-2.3,0.6-3,1.3l0,0c-0.7,0.6-1.1,1.3-1.1,1.3l0,0l-0.1,0.2h-0.3c-0.1,0-0.2,0-0.2,0l0,0 l0,0l0,0C49.5,115.6,48.1,114.5,47.3,113.2L47.3,113.2z"></path> <path id="XMLID_17_" class="st1" d="M50.4,123c0,0-2.8-0.1-6-1.9l0,0c-3.1-1.8-6.4-5.4-7.4-12.5l0,0l0.8-0.1 c1.4,10.1,7.8,12.7,10.9,13.4l0,0c0.7,0.2,1.3,0.2,1.5,0.3l0,0c1.7-1.3,2-2.8,2-4.2l0,0c0-0.7-0.2-1.4-0.3-1.9l0,0 c-0.2-0.4-0.3-0.7-0.3-0.7l0,0l0.7-0.4c0,0,0.6,1.2,0.6,2.9l0,0c0,1.5-0.5,3.5-2.5,4.9l0,0l-0.1,0.1L50.4,123 C50.4,123.1,50.4,123,50.4,123z"></path> <path id="XMLID_16_" class="st1" d="M49.3,129c1.6-1.4,2-2.7,2-3.6l0,0c0-0.7-0.3-1.3-0.5-1.8l0,0c-0.3-0.4-0.5-0.6-0.5-0.6 l0,0l0.5-0.6c0,0,1.4,1.2,1.4,3.1l0,0c0,1.2-0.6,2.7-2.3,4.2l0,0L49.3,129L49.3,129z"></path> <g id="XMLID_14_"> <path id="XMLID_15_" class="st1" d="M38.1,89.6c0.7,0,1.3,0.5,1.3,1.2S38.8,92,38.1,92c-0.8,0-1.3-0.5-1.3-1.2 S37.3,89.6,38.1,89.6z"></path> </g> </g> </g> <linearGradient id="XMLID_56_" gradientUnits="userSpaceOnUse" x1="51.8147" y1="-1174.3561" x2="51.8147" y2="-1151.9768" gradientTransform="matrix(1 -2.800000e-03 -2.800000e-03 -1 -4.5671 -1057.4338)"> <stop offset="0.8347" style="stop-color:#010101;stop-opacity:0"></stop> <stop offset="1" style="stop-color:#010101"></stop> </linearGradient> <path id="XMLID_6649_" class="st7" d="M92.4,94.3H81.6H70.1H57.7h-15H30.4H18.6H8.4l0,0c-0.7,2-1.4,4.9-1.3,8.2 c0,3.2,0.6,6.7,2.6,10.3c0,0,0,0,0.1,0.1c0,0.1,0.1,0.2,0.2,0.3c0.2,0.3,0.4,0.6,0.8,1.2c0.4,0.6,1.1,1.4,1.9,2.3 c8.9-7.2,22.5-12,37.8-12.1c15.3,0,28.9,4.6,37.9,12.1c1.8-2,2.7-3.4,2.8-3.7c0-0.1,0-0.1,0.1-0.1c2-3.6,2.6-7.1,2.6-10.2 C93.8,99.2,93.1,96.4,92.4,94.3z"></path> <linearGradient id="XMLID_57_" gradientUnits="userSpaceOnUse" x1="51.6778" y1="-1136.8568" x2="51.6778" y2="-1107.301" gradientTransform="matrix(1 -2.800000e-03 -2.800000e-03 -1 -4.5671 -1057.4338)"> <stop offset="0" style="stop-color:#010101"></stop> <stop offset="0.1174" style="stop-color:#191919;stop-opacity:0"></stop> </linearGradient> <path id="XMLID_6648_" class="st8" d="M8.4,64.8l-0.7-1.1l10.7-12.6c2.1,2.6,5.3,4.3,9,4.3c4.1,0,7.7-2.1,9.7-5.3 c2.7,3,7.5,4.8,12.8,4.8c5.2,0,9.6-2.4,12.3-5.2c2,2.9,5.3,5.5,9.3,5.5c3.9,0,7.6-1.2,9.6-4.4l11.7,12.7l-0.5,0.7 c-4.5,5.9-5.4,11-5.4,12.9c0,0.2,0,0.3,0,0.4s0,0.2,0,0.3c0,0.3,0,0.7,0.1,1.2h-3.3h-7.6h-6.4h-7.6h-6.4h-7.6h-6.4H29.8h-6.4H14 c0.1-0.5,0.1-0.9,0.1-1.2c0-0.2,0-0.3,0-0.4s0-0.1,0-0.2c0-1-0.4-3-1.4-5.5C11.7,69.7,10.4,66.9,8.4,64.8z"></path> <g id="XMLID_4_"> <g id="XMLID_5_"> <path id="XMLID_11_" class="st1" d="M29.6,87H30c1.1,0.1,2.5,0.3,2.5,2.2c0,0.8-0.2,2.1-2,2.1c-0.7,0-1-0.2-1-0.9V87H29.6z M29.6,83.5c0-0.4,0-0.7,0.9-0.7c1.3,0,1.7,0.8,1.7,1.8c0,1.4-0.4,2-2.5,2L29.6,83.5z M25.6,91.7h5.2c3.4-0.1,4.5-1.4,4.5-2.6 c0-1.6-1.7-2.3-3-2.5l0,0c0.7-0.2,2.5-0.5,2.5-2.1c0-2.1-3.3-2.2-4.2-2.2h-5v0.4c0.7,0,1.4,0.1,1.4,1v6.8c0,0.9-0.5,0.9-1.4,1 C25.6,91.4,25.6,91.7,25.6,91.7z"></path> <path id="XMLID_10_" class="st1" d="M38.1,89.6c0.7,0,1.3,0.5,1.3,1.2S38.8,92,38.1,92c-0.8,0-1.3-0.5-1.3-1.2 S37.3,89.6,38.1,89.6z"></path> <path id="XMLID_9_" class="st1" d="M51.4,85.1c-0.3-1-1.2-2.6-3.1-2.6c-0.8,0-1.7,0.4-1.7,1.3c0,0.7,0.4,1.1,1.7,1.6l2.4,1 c0.5,0.3,1.8,1.1,1.8,2.6c0,1.2-1,2.9-4,2.9c-1.5,0-2.2-0.4-2.8-0.4c-0.4,0-0.4,0.3-0.4,0.4h-0.4v-3.5h0.4 c0.4,1.4,1.2,2.9,3.3,2.9c2,0,2-1.4,2-1.6c0-0.9-0.8-1.2-1.8-1.7l-1.1-0.4C45,86.5,45,85.3,45,84.7c0-0.8,0.4-2.8,3.6-2.8 c1.2,0,2,0.4,2.5,0.4c0.4,0,0.4-0.2,0.5-0.4H52v3L51.4,85.1L51.4,85.1z"></path> <path id="XMLID_8_" class="st1" d="M55,89.5c0.7,0,1.3,0.5,1.3,1.2s-0.6,1.2-1.3,1.2c-0.8,0-1.3-0.5-1.3-1.2 C53.6,90.1,54.3,89.5,55,89.5z"></path> <path id="XMLID_7_" class="st1" d="M72.1,89.9c-1.2,1.2-2.4,2-4.5,2c-3.7,0-5.8-2.2-5.8-4.9c0-2.8,2.3-5,5.7-5 c1.4,0,2.7,0.7,3.1,0.7s0.6-0.3,0.7-0.6h0.4v3.3h-0.4c-0.5-1.2-2-2.8-3.7-2.8c-2.4,0-2.9,2.1-2.9,4.5c0,0.8,0.1,2.1,0.7,3 c0.6,1,2,1.2,2.4,1.2c1.2,0,2.5-0.4,3.8-1.7L72.1,89.9z"></path> <path id="XMLID_6_" class="st1" d="M74.6,89.5c0.8,0,1.3,0.5,1.3,1.2s-0.6,1.2-1.3,1.2c-0.8,0-1.3-0.5-1.3-1.2 C73.3,90.1,73.8,89.5,74.6,89.5z"></path> </g> </g> </g> </g> </g> </svg> 